<?xml version="1.0" encoding="UTF-8" standalone="no"?>
<svg
   xmlns:dc="http://purl.org/dc/elements/1.1/"
   xmlns:cc="http://creativecommons.org/ns#"
   xmlns:rdf="http://www.w3.org/1999/02/22-rdf-syntax-ns#"
   xmlns:svg="http://www.w3.org/2000/svg"
   xmlns="http://www.w3.org/2000/svg"
   xmlns:sodipodi="http://sodipodi.sourceforge.net/DTD/sodipodi-0.dtd"
   xmlns:inkscape="http://www.inkscape.org/namespaces/inkscape"
   width="210mm"
   height="297mm"
   viewBox="0 0 210 297"
   version="1.1"
   id="svg8"
   inkscape:version="1.0.1 (3bc2e813f5, 2020-09-07)"
   sodipodi:docname="drawing.svg">
  <defs
     id="defs2">
    <clipPath
       clipPathUnits="userSpaceOnUse"
       id="clipPath858">
      <path
         style="fill:#5a3715;fill-opacity:1;stroke:#000000;stroke-width:0.264583px;stroke-linecap:butt;stroke-linejoin:miter;stroke-opacity:1"
         d="m -287.582,-44.366741 c -10.15624,2.672694 -30.46873,15.501633 -36.34867,15.501633 -5.87992,0 -29.93419,-8.018086 -33.14142,-5.87993 -3.20722,2.138156 -33.14142,25.1233349 -33.14142,25.1233349 l -5.87994,17.6397886 -25.12332,6.9490075 0.53454,27.261492 c 0,0 -19.24342,20.312486 -22.98518,22.450642 -3.74179,2.138156 -9.08717,2.672694 -9.08717,2.672694 l 6.94902,28.86511 -11.22534,21.916099 c 0,0 10.15624,25.65787 11.75988,28.86511 1.60361,3.20723 12.29439,17.63979 12.29439,17.63979 l 3.74177,34.2105 32.07234,14.96709 12.29439,19.77794 32.07234,-11.75986 16.03619,33.14143 37.41772,-12.82894 28.86511,7.48355 21.91611,4.27631 39.02135,-16.03617 -5.34539,-12.2944 11.75986,-18.17433 23.51972,-22.98518 -5.34539,-16.57071 16.57071,-40.62497 1.06908,-14.43255 11.22532,-14.432553 -11.22532,-27.261492 -13.36348,-13.363477 1.60362,-35.814117 -11.22532,-12.8289372 -19.24341,-2.1381561 -17.63978,-21.9161007 -12.82894,-18.17433 -29.39966,-0.534537 -13.36347,-13.363477 z"
         id="path860" />
    </clipPath>
    <clipPath
       clipPathUnits="userSpaceOnUse"
       id="clipPath898">
      <g
         id="g910">
        <path
           style="fill:#5a3715;fill-opacity:1;stroke:#000000;stroke-width:0.264583px;stroke-linecap:butt;stroke-linejoin:miter;stroke-opacity:1"
           d="m -287.582,-44.36674 c -10.15624,2.672693 -30.46873,15.501633 -36.34867,15.501633 -5.87991,0 -29.93419,-8.018087 -33.14141,-5.879931 -3.20723,2.138156 -33.14142,25.123335 -33.14142,25.123335 l -5.87994,17.6397886 -25.12333,6.9490074 0.53454,27.261491 c 0,0 -19.24341,20.312486 -22.98517,22.450642 -3.74179,2.138156 -9.08717,2.672694 -9.08717,2.672694 l 6.94902,28.86511 -11.22535,21.9161 c 0,0 10.15624,25.65787 11.75988,28.86511 1.60362,3.20723 12.2944,17.63979 12.2944,17.63979 l 3.74176,34.2105 32.07234,14.96709 12.2944,19.77794 32.07234,-11.75986 16.03618,33.14143 37.41772,-12.82894 28.86512,7.48355 21.9161,4.27631 39.02135,-16.03617 -5.34539,-12.2944 11.75986,-18.17433 23.51972,-22.98518 -5.34539,-16.57071 16.57071,-40.62497 1.06908,-14.43255 11.22532,-14.432554 -11.22532,-27.261492 -13.36348,-13.363477 1.60362,-35.814116 -11.22532,-12.8289371 -19.24341,-2.1381563 -17.63978,-21.9161006 -12.82894,-18.174329 -29.39966,-0.534538 -13.36347,-13.363477 z"
           id="path900" />
        <g
           id="g908"
           clip-path="url(#clipPath858)">
          <path
             style="fill:none;stroke:#000000;stroke-width:1;stroke-linecap:butt;stroke-linejoin:miter;stroke-miterlimit:4;stroke-dasharray:none;stroke-opacity:1"
             d="m -407.8533,-11.759859 26.19243,42.228585 48.1085,14.432555 55.59208,57.730219 -36.88321,52.38483 17.6398,32.60688 40.09042,12.29439 15.50163,34.2105 43.29766,-14.96709 121.340368,-13.36348"
             id="path902" />
          <path
             style="fill:none;stroke:#000000;stroke-width:1;stroke-linecap:butt;stroke-linejoin:miter;stroke-miterlimit:4;stroke-dasharray:none;stroke-opacity:1"
             d="m -231.45541,-45.435818 -31.5378,-2.138157 -8.01809,18.708868 4.81086,118.133128 -12.29442,1.069078 8.0181,16.036171 -25.65787,-11.759859 -67.35193,19.243409 -21.9161,-34.210501 -22.45064,20.847021 9.08717,52.38483 -18.17434,12.82894 -32.07234,-2.13816"
             id="path904" />
          <path
             style="fill:none;stroke:#000000;stroke-width:1;stroke-linecap:butt;stroke-linejoin:miter;stroke-miterlimit:4;stroke-dasharray:none;stroke-opacity:1"
             d="m -83.922631,148.60185 -59.333829,31.53781 -1.06908,-85.526249 -36.8832,28.330569 -19.77794,28.33057 -15.50163,-16.57071 -26.19242,-4.81085 -9.6217,3.20723 -5.34539,-21.9161 -13.36348,-5.34539"
             id="path906" />
        </g>
      </g>
    </clipPath>
  </defs>
  <sodipodi:namedview
     id="base"
     pagecolor="#ffffff"
     bordercolor="#666666"
     borderopacity="1.0"
     inkscape:pageopacity="0.0"
     inkscape:pageshadow="2"
     inkscape:zoom="0.35355339"
     inkscape:cx="-1970.3901"
     inkscape:cy="487.31225"
     inkscape:document-units="mm"
     inkscape:current-layer="layer1"
     inkscape:document-rotation="0"
     showgrid="false"
     inkscape:snap-global="false"
     inkscape:window-width="1920"
     inkscape:window-height="1017"
     inkscape:window-x="-8"
     inkscape:window-y="-8"
     inkscape:window-maximized="1" />
  <metadata
     id="metadata5">
    <rdf:RDF>
      <cc:Work
         rdf:about="">
        <dc:format>image/svg+xml</dc:format>
        <dc:type
           rdf:resource="http://purl.org/dc/dcmitype/StillImage" />
        <dc:title></dc:title>
      </cc:Work>
    </rdf:RDF>
  </metadata>
  <g
     inkscape:label="Layer 1"
     inkscape:groupmode="layer"
     id="layer1">
    <g
       id="g924"
       transform="translate(-20.108333,-39.158333)">
      <g
         id="g867">
        <path
           style="fill:#5a3715;fill-opacity:1;stroke:#000000;stroke-width:0.264583px;stroke-linecap:butt;stroke-linejoin:miter;stroke-opacity:1"
           d="m -287.582,-44.36674 c -10.15624,2.672693 -30.46873,15.501633 -36.34867,15.501633 -5.87991,0 -29.93419,-8.018087 -33.14141,-5.879931 -3.20723,2.138156 -33.14142,25.123335 -33.14142,25.123335 l -5.87994,17.6397886 -25.12333,6.9490074 0.53454,27.261491 c 0,0 -19.24341,20.312486 -22.98517,22.450642 -3.74179,2.138156 -9.08717,2.672694 -9.08717,2.672694 l 6.94902,28.86511 -11.22535,21.9161 c 0,0 10.15624,25.65787 11.75988,28.86511 1.60362,3.20723 12.2944,17.63979 12.2944,17.63979 l 3.74176,34.2105 32.07234,14.96709 12.2944,19.77794 32.07234,-11.75986 16.03618,33.14143 37.41772,-12.82894 28.86512,7.48355 21.9161,4.27631 39.02135,-16.03617 -5.34539,-12.2944 11.75986,-18.17433 23.51972,-22.98518 -5.34539,-16.57071 16.57071,-40.62497 1.06908,-14.43255 11.22532,-14.432554 -11.22532,-27.261492 -13.36348,-13.363477 1.60362,-35.814116 -11.22532,-12.8289371 -19.24341,-2.1381563 -17.63978,-21.9161006 -12.82894,-18.174329 -29.39966,-0.534538 -13.36347,-13.363477 z"
           id="path841" />
        <g
           id="g854"
           clip-path="url(#clipPath858)">
          <path
             style="fill:none;stroke:#000000;stroke-width:1;stroke-linecap:butt;stroke-linejoin:miter;stroke-miterlimit:4;stroke-dasharray:none;stroke-opacity:1"
             d="m -407.8533,-11.759859 26.19243,42.228585 48.1085,14.432555 55.59208,57.730219 -36.88321,52.38483 17.6398,32.60688 40.09042,12.29439 15.50163,34.2105 43.29766,-14.96709 121.340368,-13.36348"
             id="path845" />
          <path
             style="fill:none;stroke:#000000;stroke-width:1;stroke-linecap:butt;stroke-linejoin:miter;stroke-miterlimit:4;stroke-dasharray:none;stroke-opacity:1"
             d="m -231.45541,-45.435818 -31.5378,-2.138157 -8.01809,18.708868 4.81086,118.133128 -12.29442,1.069078 8.0181,16.036171 -25.65787,-11.759859 -67.35193,19.243409 -21.9161,-34.210501 -22.45064,20.847021 9.08717,52.38483 -18.17434,12.82894 -32.07234,-2.13816"
             id="path847" />
          <path
             style="fill:none;stroke:#000000;stroke-width:1;stroke-linecap:butt;stroke-linejoin:miter;stroke-miterlimit:4;stroke-dasharray:none;stroke-opacity:1"
             d="m -83.922631,148.60185 -59.333829,31.53781 -1.06908,-85.526249 -36.8832,28.330569 -19.77794,28.33057 -15.50163,-16.57071 -26.19242,-4.81085 -9.6217,3.20723 -5.34539,-21.9161 -13.36348,-5.34539"
             id="path849" />
        </g>
      </g>
      <g
         id="g884"
         clip-path="url(#clipPath898)">
        <path
           style="fill:none;stroke:#000000;stroke-width:1;stroke-linecap:butt;stroke-linejoin:miter;stroke-miterlimit:4;stroke-dasharray:none;stroke-opacity:1"
           d="m -352.10088,241.34438 -1.4967,-46.02381 19.8314,-26.94077 -7.85773,-31.05672 -16.83798,-4.8643 -5.61266,-19.45722"
           id="path869" />
        <path
           style="fill:none;stroke:#000000;stroke-width:1;stroke-linecap:butt;stroke-linejoin:miter;stroke-miterlimit:4;stroke-dasharray:none;stroke-opacity:1"
           d="m -477.0761,77.454709 27.68912,20.205575 10.1028,-5.612659 17.21215,8.980255 13.84456,-1.122532"
           id="path871" />
        <path
           style="fill:none;stroke:#000000;stroke-width:1;stroke-linecap:butt;stroke-linejoin:miter;stroke-miterlimit:4;stroke-dasharray:none;stroke-opacity:1"
           d="m -156.40613,47.520521 -35.17266,13.470384 -40.41116,-8.980254 -7.10937,27.314945 -2.24506,16.83798 -24.32152,-7.10937"
           id="path873" />
        <path
           style="fill:none;stroke:#000000;stroke-width:1;stroke-linecap:butt;stroke-linejoin:miter;stroke-miterlimit:4;stroke-dasharray:none;stroke-opacity:1"
           d="m -331.14694,-38.166087 17.9605,21.328107 -22.82481,31.805073 2.24507,29.934188"
           id="path875" />
        <path
           style="fill:none;stroke:#000000;stroke-width:1;stroke-linecap:butt;stroke-linejoin:miter;stroke-miterlimit:4;stroke-dasharray:none;stroke-opacity:1"
           d="m -299.71605,255.18894 -0.37418,-23.57317 35.17268,-5.61266 7.85772,-25.44406"
           id="path877" />
      </g>
    </g>
  </g>
</svg>
